<svg xmlns="http://www.w3.org/2000/svg" viewBox="-20 0 190 475">
  <path fill="#aaa" stroke="#000" stroke-width="3" d="M101.76 452.715c-.9-.315-1.8-.72-2.025-.9-.18-.225-.495-3.645-.675-7.65-.45-11.7-1.71-29.205-2.61-36.315-.225-1.845-.63-6.3-.9-9.9-.27-3.6-.81-9.945-1.215-14.175-.405-4.185-.81-9.315-.9-11.34-.135-2.07-.36-3.735-.585-3.735-.18 0-.45 1.485-.585 3.285-.18 2.925-.81 9.45-2.115 23.04-.675 6.615-1.305 13.68-1.8 20.25-.225 2.97-.855 9.045-1.35 13.5-.495 4.455-.9 10.755-.9 14.04 0 6.525-.405 8.055-2.205 8.595-.63.18-5.31.27-10.395.225-5.085-.045-18.765-.135-30.42-.225-16.965-.135-21.375-.27-21.96-.765-1.125-.945-.945-4.725.405-7.65 1.575-3.33 4.455-6.615 6.66-7.65 3.195-1.395 3.87-2.52 4.41-7.065.225-2.205.495-8.235.585-13.455.18-9.72.765-17.91 1.665-23.4.27-1.71.675-4.14.9-5.4.18-1.215.36-4.365.405-6.975 0-2.61.45-7.74.945-11.475.495-3.69 1.08-10.17 1.305-14.4.225-4.185.585-9.36.855-11.475.27-2.115.675-6.165.945-9 .225-2.835.675-6.975.945-9.225.225-2.205.63-6.39.855-9.225.63-7.605 1.215-12.825 1.935-16.875.81-4.5 1.575-9.54 2.205-14.985.585-5.085.45-5.265-4.815-7.74-1.98-.9-4.815-2.7-6.3-3.96-1.485-1.305-2.835-2.34-2.97-2.34-.675 0-4.635-5.67-5.13-7.335-.315-1.035-1.26-3.285-2.07-5.04-1.35-2.88-1.485-3.465-1.485-7.875-.045-5.715.54-37.935.945-54.45.36-13.995.36-13.995-.315-18.675-.495-3.735-.405-7.38.36-11.16.225-1.215.27-3.735.045-5.85-.495-5.085-.45-13.95.045-20.025.225-3.06.225-6.525 0-8.775-.225-2.025-.45-8.145-.495-13.59-.135-9.27-.045-10.08.855-12.42 1.26-3.195 3.33-5.58 6.885-8.01l2.835-1.89 18.495.045c10.125.045 19.53.045 20.835.045l2.385-.045-2.295-4.275c-1.215-2.385-2.25-4.77-2.25-5.31 0-.585-.54-2.52-1.17-4.365-1.665-4.77-3.375-16.245-3.24-21.825.09-6.03-.18-6.525-3.825-6.525-5.265-.045-8.865-2.925-8.865-7.065 0-4.095 2.88-5.985 8.955-5.985 2.385 0 3.69-.18 4.005-.585.27-.315.81-3.015 1.215-5.985 1.125-8.775 2.43-13.41 5.13-18.45 3.645-6.75 6.12-8.73 10.845-8.73 3.555 0 5.085.72 8.1 3.78 2.61 2.7 3.825 3.105 5.175 1.665.405-.495 2.025-1.665 3.555-2.565 2.25-1.395 3.285-1.71 5.76-1.89 2.655-.18 3.24-.045 5.625 1.215 1.44.765 2.925 1.845 3.285 2.43 3.96 6.255 6.615 13.68 8.145 22.815.63 3.87 1.26 6.3 1.71 6.66.36.315 1.935.54 3.6.54 6.525.045 9.495 1.71 9.495 5.355 0 1.575-.36 2.475-1.35 3.825-1.98 2.61-2.655 2.925-7.38 3.24-3.015.225-4.5.54-4.905.99-.36.45-.495 1.935-.405 4.455.045 2.07-.09 4.095-.315 4.59-.27.45-.675 2.745-.945 5.04-.495 4.455-1.305 7.875-3.825 15.705-2.16 6.66-2.565 7.65-3.735 9.45l-.99 1.575 5.445.315c3.015.18 5.895.135 6.435-.045 1.215-.45 27.855-.27 30.195.18 2.385.495 5.985 4.275 8.055 8.505l1.53 3.195-.135 32.625c-.09 17.955-.405 36.99-.675 42.3-.27 5.31-.45 14.625-.36 20.7.225 11.925-.72 47.43-1.395 53.415-.45 4.095-1.8 7.425-4.14 10.35-.855 1.035-2.205 2.835-3.015 3.96-.855 1.215-2.475 2.61-3.915 3.42-1.35.765-2.565 1.575-2.7 1.8-.405.585-5.715 3.42-7.065 3.735-2.295.54-2.745 1.44-2.475 5.175.135 1.89.45 5.13.72 7.245.225 2.115.675 8.28.9 13.725.27 5.445.675 12.15.945 14.85.405 4.545 1.215 16.02 2.25 31.95.225 3.465.63 11.25.9 17.325.27 6.075.675 13.275.9 15.975.855 10.08 1.755 23.265 2.25 34.38.63 13.68 1.035 15.435 4.185 17.145 2.97 1.665 5.985 4.185 8.01 6.75 1.71 2.16 1.89 2.7 2.115 5.4.18 2.97.18 3.06-1.08 3.87-1.35.945-1.53.945-34.38 1.35-7.29.09-16.02.27-19.35.36-3.915.135-6.66 0-7.74-.315z"/>
</svg>
