<?xml version="1.0" encoding="UTF-8" standalone="no"?>
<svg
   version="1.1"
   width="422"
   height="445"
   id="svg366"
   sodipodi:docname="fuzzy-logo-small.svg"
   inkscape:version="1.2.1 (9c6d41e410, 2022-07-14)"
   xmlns:inkscape="http://www.inkscape.org/namespaces/inkscape"
   xmlns:sodipodi="http://sodipodi.sourceforge.net/DTD/sodipodi-0.dtd"
   xmlns="http://www.w3.org/2000/svg"
   xmlns:svg="http://www.w3.org/2000/svg">
  <defs
     id="defs370" />
  <sodipodi:namedview
     id="namedview368"
     pagecolor="#ffffff"
     bordercolor="#000000"
     borderopacity="0.25"
     inkscape:showpageshadow="2"
     inkscape:pageopacity="0.0"
     inkscape:pagecheckerboard="0"
     inkscape:deskcolor="#d1d1d1"
     showgrid="false"
     inkscape:zoom="0.7091784"
     inkscape:cx="207.98716"
     inkscape:cy="224.20311"
     inkscape:window-width="2560"
     inkscape:window-height="1377"
     inkscape:window-x="1072"
     inkscape:window-y="360"
     inkscape:window-maximized="1"
     inkscape:current-layer="svg366" />
  <path
     style="fill:#ffaa00;stroke:#ffaa00;stroke-width:12"
     d="m 189.51079,421.61475 c -12.17793,-6.47662 -18.18579,-10.5695 -25.06345,-17.07466 -6.82985,-6.45991 -9.85185,-5.10041 -10.92918,4.91669 l -0.74287,6.90726 -15.85094,-15.86342 c -8.85727,-8.86425 -17.01019,-15.86343 -18.47836,-15.86343 -1.93723,0 -3.04715,1.66687 -4.22521,6.34537 -0.87878,3.48995 -2.09879,6.34537 -2.71113,6.34537 -1.7083,0 -14.55749,-17.77886 -21.40107,-29.61173 -5.62955,-9.73376 -7.88961,-12.61191 -9.94841,-12.66915 -0.42712,-0.0113 -2.20113,2.91055 -3.94224,6.49428 -1.74111,3.58373 -3.45436,6.22717 -3.80722,5.87431 -1.5989,-1.59889 -11.83756,-32.43284 -13.39025,-40.32504 -0.95178,-4.83779 -2.22218,-9.09984 -2.82312,-9.47125 -2.33154,-1.44096 -5.82362,1.339 -8.65595,6.89084 -2.92774,5.73884 -2.97198,5.76265 -4.26208,2.29372 -1.04582,-2.81208 -3.6598,-37.63207 -3.88873,-51.80063 -0.0717,-4.43907 -1.96671,-3.98018 -8.73456,2.11512 l -5.87125,5.28781 0.9487,-11.9857 c 0.52178,-6.59213 2.52748,-17.9803 4.45711,-25.30703 1.92962,-7.32672 3.5084,-14.46526 3.5084,-15.86343 0,-3.32647 -3.02703,-3.21324 -10.06339,0.37644 -3.14644,1.60519 -6.13229,2.50704 -6.63523,2.00411 -0.50293,-0.50294 4.73669,-11.97279 11.64361,-25.48857 6.90692,-13.51577 12.29233,-24.83983 11.96758,-25.16458 -0.32475,-0.32476 -4.39244,0.30378 -9.03932,1.39675 -4.64687,1.09299 -8.94709,1.99715 -9.55604,2.00926 -3.22209,0.0642 10.35607,-18.03919 24.4144,-32.55087 5.46215,-5.63829 9.64562,-10.9956 9.2966,-11.90513 -0.72373,-1.88602 -7.29321,-3.44374 -14.80153,-3.50966 l -5.11155,-0.0449 7.75545,-6.98394 c 4.2655,-3.84117 12.93205,-10.64225 19.25899,-15.11351 11.05315,-7.81128 14.81429,-12.58902 11.51536,-14.62787 -0.85333,-0.52739 -4.06526,-1.36086 -7.13761,-1.85214 -4.86552,-0.77803 -5.35031,-1.17737 -3.7582,-3.09575 2.30499,-2.77734 28.29759,-15.88677 35.81972,-18.06576 3.24976,-0.94138 5.64033,-2.50405 5.64033,-3.68699 0,-1.12921 -3.44814,-3.73306 -7.66252,-5.78634 l -7.66253,-3.73323 9.77765,-2.99122 c 5.3777,-1.64518 16.28165,-4.02179 24.23099,-5.28135 12.0442,-1.9084 14.45334,-2.70744 14.45334,-4.79373 0,-1.37697 -2.22483,-3.87861 -4.94407,-5.5592 -8.52824,-5.27074 -5.138,-6.08578 22.06962,-5.3057 19.58902,0.56164 25.17693,0.33057 25.17693,-1.0411 0,-0.96962 -0.99365,-2.5876 -2.20811,-3.59551 -3.53737,-2.93576 -6.70672,-9.79346 -4.526,-9.79317 3.34445,4.5e-4 22.90307,4.08441 30.00047,6.26429 10.22242,3.13968 10.99165,2.96038 10.23972,-2.3868 -0.35444,-2.52053 -1.16274,-5.78819 -1.79621,-7.26147 -1.02637,-2.38705 -0.70432,-2.56985 2.95782,-1.67895 2.26026,0.54986 11.11055,3.81752 19.66731,7.26147 8.55675,3.44394 16.01256,6.26171 16.56847,6.26171 0.55589,0 1.01073,-3.18064 1.01073,-7.0681 v -7.0681 l 5.99285,3.76649 c 3.29607,2.07157 10.58711,7.15583 16.20231,11.29835 5.61522,4.14252 11.48469,7.53186 13.04327,7.53186 2.53049,0 2.83939,-0.9433 2.88615,-8.81302 l 0.0523,-8.81301 15.27522,15.86342 c 8.40139,8.72489 15.9302,15.86343 16.7307,15.86343 1.66305,0 4.53608,-7.42483 4.58285,-11.84359 0.0299,-2.82281 0.16153,-2.79631 2.79656,0.56293 1.52088,1.93887 3.84052,6.29179 5.15476,9.67317 2.37534,6.11149 2.42497,6.14397 8.36514,5.47443 l 5.97563,-0.67354 -0.77061,4.74867 c -0.60519,3.72972 -0.28767,4.74867 1.4798,4.74867 2.80993,0 12.45513,3.24558 21.38777,7.19691 5.99843,2.65339 6.48374,3.17675 4.105,4.4268 -3.38428,1.77847 -6.22288,5.27452 -6.22288,7.66419 0,1.00534 4.28313,4.02141 9.51806,6.70238 5.23493,2.68097 12.28994,6.75151 15.6778,9.04565 l 6.15974,4.17116 -8.4356,6.13046 c -4.63958,3.37175 -12.80503,9.19428 -18.14544,12.93895 -12.64804,8.86872 -93.76764,62.25074 -115.99915,76.33505 -21.23229,13.45125 -24.14332,16.37423 -24.14332,24.24235 0,5.12675 0.68426,6.42595 5.28781,10.04004 10.4777,8.22567 138.00561,92.37479 146.64857,96.76586 2.52052,1.28055 4.58277,2.89211 4.58277,3.58122 0,1.75397 -12.06637,8.96634 -20.13973,12.03801 -3.70916,1.41121 -7.04254,3.04901 -7.4075,3.63954 -1.37757,2.22894 1.0296,5.06192 7.13506,8.39716 3.47124,1.89625 6.31134,3.86336 6.31134,4.37136 0,1.53201 -18.14621,7.69956 -32.78441,11.14279 -12.39035,2.91449 -13.74831,3.54924 -13.74831,6.42633 0,2.12743 1.6464,4.20994 4.93529,6.24259 2.71441,1.6776 4.93529,3.56704 4.93529,4.19876 0,1.61894 -22.08742,5.30524 -38.42474,6.41293 -15.74826,1.06775 -16.58589,2.00596 -9.24349,10.35338 l 4.50483,5.12145 -9.45882,0.41737 c -5.33655,0.23549 -16.34232,-0.83994 -25.25356,-2.46764 -8.68711,-1.58675 -16.29313,-2.88502 -16.90229,-2.88502 -1.89114,0 -1.12784,7.61002 1.05243,10.49261 2.74925,3.63483 2.6106,5.0183 -0.50291,5.0183 -4.54674,0 -22.87789,-6.84661 -32.02092,-11.95968 -14.11097,-7.8913 -16.56324,-6.67608 -13.46354,6.67187 0.67536,2.9083 0.81886,5.27112 0.31888,5.25071 -0.49999,-0.0204 -5.35186,-2.39992 -10.78195,-5.28781 z m -23.26406,-49.45143 c 0,-1.43182 -2.69678,-5.10578 -5.99285,-8.16438 -3.29607,-3.0586 -9.016,-8.84957 -12.71096,-12.86882 -8.75072,-9.51875 -11.71602,-11.1449 -13.66888,-7.49594 -0.80811,1.50995 -1.46929,4.4372 -1.46929,6.50499 0,3.37327 -0.52272,2.98431 -5.08678,-3.78503 -2.79773,-4.14955 -7.22369,-11.78055 -9.83547,-16.95778 -5.4476,-10.79856 -7.03975,-12.23669 -10.12811,-9.14832 -4.0706,4.0706 1.5685,21.5857 12.63821,39.25441 4.43323,7.07604 13.31648,13.85408 18.15704,13.85408 3.32,0 4.0172,-0.65369 4.38887,-4.11499 l 0.44186,-4.115 7.75546,4.71211 c 8.90049,5.40784 15.5109,6.39855 15.5109,2.32467 z m 81.78478,-13.00031 c 0,-2.37763 -0.65686,-5.55031 -1.45969,-7.05042 -1.75225,-3.27411 -1.83048,-3.26569 5.68994,-0.61234 3.2972,1.16332 9.08781,2.11512 12.86803,2.11512 5.94263,0 6.87312,-0.3834 6.87312,-2.83198 0,-2.17756 -2.74578,-4.10053 -11.88232,-8.32163 -6.53528,-3.01931 -14.79648,-7.49463 -18.3582,-9.94517 -8.73173,-6.00758 -12.06195,-5.00884 -12.06195,3.61739 0,6.09432 -0.1035,6.24476 -3.17268,4.60879 -1.74498,-0.93014 -6.97991,-5.34238 -11.63318,-9.80496 -4.65328,-4.4626 -10.20548,-8.55171 -12.33822,-9.08694 -3.67034,-0.92108 -3.87773,-0.7123 -3.87773,3.90346 0,9.68001 12.97491,22.71482 32.0685,32.21655 13.80677,6.87081 17.28438,7.11066 17.28438,1.19213 z M 80.2317,269.67122 c 0,-25.47498 -0.5547,-27.10552 -7.64153,-22.46205 -4.39767,2.88146 -4.46132,2.41549 -1.54849,-11.3362 2.67612,-12.63411 2.68543,-16.21543 0.0422,-16.21543 -7.02613,0 -17.01337,31.94247 -14.11426,45.14203 0.95425,4.34466 1.23671,4.5103 6.48956,3.80576 l 5.49189,-0.73663 v 5.55145 c 0,8.68124 5.194,19.56168 9.33819,19.56168 1.57156,0 1.94246,-4.451 1.94246,-23.31061 z m 63.96174,12.38247 c 0.38393,-1.3572 1.08768,-5.9576 1.56389,-10.2231 0.4762,-4.2655 1.21241,-10.13496 1.63602,-13.04326 0.64265,-4.41212 0.35607,-5.28781 -1.73051,-5.28781 -1.37539,0 -4.0572,1.42771 -5.95959,3.17269 l -3.4589,3.17268 0.92271,-17.97855 c 0.85165,-16.59413 0.73097,-17.97789 -1.56728,-17.96986 -1.36949,0.004 -4.23496,0.91895 -6.36771,2.0315 -3.34105,1.74285 -3.87773,1.7456 -3.87773,0.0199 0,-3.59751 4.68951,-13.9105 9.27222,-20.39111 2.46789,-3.48995 4.92395,-7.77308 5.4579,-9.51805 0.8164,-2.66799 0.44164,-3.17269 -2.3558,-3.17269 -6.60683,0 -18.5492,15.85505 -23.52504,31.23255 -2.78383,8.60325 -4.17009,20.03679 -2.75264,22.7031 1.45867,2.74383 5.65978,3.20544 9.6649,1.06196 2.37895,-1.27317 2.71992,-0.64178 3.61704,6.6979 1.26905,10.38252 5.45877,21.14613 10.15243,26.08212 4.20185,4.41878 8.2821,5.0369 9.30809,1.41008 z M 90.28919,165.01685 c 4.02779,-6.01048 11.02703,-15.13756 15.55387,-20.2824 4.52684,-5.14484 8.23062,-9.60094 8.23062,-9.90244 0,-0.3015 -2.23742,-1.75311 -4.97205,-3.2258 l -4.97205,-2.67763 9.92605,-9.46466 c 6.95534,-6.63203 9.66429,-10.14678 9.05143,-11.74385 -2.98107,-7.76856 -28.82545,6.60455 -38.71075,21.52862 -5.45424,8.23441 -5.0915,11.99264 1.21597,12.59806 3.39382,0.32575 4.30237,0.90558 3.31426,2.11512 -0.74871,0.91649 -3.3286,5.55206 -5.7331,10.30128 -5.34308,10.5533 -6.04092,21.68184 -1.35961,21.68184 0.62265,0 4.42756,-4.91766 8.45536,-10.92814 z m 176.28234,-29.1428 c 9.16754,-3.83045 13.89188,-12.32632 13.89188,-24.98206 0,-8.66206 -0.0991,-8.88524 -6.82064,-15.36396 -5.10912,-4.92455 -8.31566,-6.81329 -12.77855,-7.52694 -12.47945,-1.99554 -24.8821,5.14678 -28.77452,16.57039 -1.90305,5.58514 -1.93678,8.67871 -0.18899,17.32918 0.88996,4.40473 7.52108,11.80446 12.53569,13.98869 5.68737,2.47726 16.18695,2.47 22.13513,-0.0153 z"
     id="fuzzman" />
  <path
     d="m 239,0 7,1 16,8 11,7 7,6 1,-13 2,-2 6,1 9,6 11,9 9,9 4,4 1,-10 2,-5 5,1 7,8 8,14 v 2 l 2,-1 13,-1 8,1 2,2 -1,6 -6,7 10,2 18,8 11,8 1,5 -11,4 13,9 10,9 7,7 v 5 l -9,6 -22,14 -23,15 -17,11 -11,7 -25,16 -10,7 -35,23 -17,11 -1,1 12,7 15,10 15,10 44,29 18,12 27,18 23,15 7,6 -1,6 -10,7 -15,9 10,7 2,3 -5,5 -15,9 -17,7 -7,2 4,3 5,3 -1,5 -15,6 -19,5 -16,2 6,5 2,3 -1,5 -17,3 h -38 l 5,7 1,4 -1,1 h -16 l -21,-4 -16,-6 h -2 l 4,9 -1,4 h -8 l -20,-8 -21,-11 -2,-1 2,7 v 5 l -5,1 -12,-7 -13,-10 -12,-11 -2,-2 -1,12 -1,1 h -5 l -12,-10 -7,-8 -11,-14 -4,-7 -3,8 -2,4 -5,-1 -6,-7 -12,-23 -6,-17 v -4 h -2 l -2,6 -4,6 -4,-1 -5,-12 -4,-18 -1,-8 v -17 h -2 l -2,4 -6,6 -5,-1 -1,-6 v -29 l 3,-18 v -4 l -8,5 -5,-1 -1,-1 v -8 l 5,-21 7,-18 3,-7 -9,3 H 1 l -1,-6 4,-10 10,-16 9,-12 5,-6 -14,-1 -1,-1 v -5 l 8,-11 11,-12 10,-10 6,-4 -2,-1 -9,-2 -2,-4 4,-5 18,-13 17,-10 2,-1 -12,-4 -1,-3 5,-5 14,-7 17,-6 7,-2 h 4 v -2 l -4,-1 -4,-4 2,-4 9,-4 16,-3 21,-2 4,-1 -6,-7 1,-3 2,-1 h 28 l 14,1 -5,-7 1,-4 7,-1 21,4 21,8 -1,-5 V 1 Z m 12,18 1,15 -4,-1 -21,-9 -12,-4 h -5 l 4,10 v 4 l -5,-1 -14,-4 -16,-3 h -8 l 2,5 6,7 v 3 l -11,-1 -9,-1 h -19 l -11,1 -3,2 9,6 3,3 v 2 l -25,4 -19,5 -5,2 v 2 l 9,3 6,3 1,3 -10,3 -27,13 -8,6 4,2 9,2 2,1 -1,4 -17,12 -11,9 -10,9 -1,2 17,1 4,2 -1,3 -4,2 -9,10 -9,10 -11,15 -3,6 18,-4 3,-1 -2,6 -10,18 -14,29 h 3 l 14,-7 h 2 l -1,9 -5,18 -3,20 v 10 l 5,-4 5,-5 5,-3 1,39 3,20 h 2 l 6,-11 5,-3 4,18 5,16 7,18 2,-1 5,-10 v -2 l 4,1 14,24 9,12 5,6 2,-1 4,-13 5,1 12,14 13,13 5,2 v 2 h 2 l 1,-15 4,-1 10,9 15,10 16,8 h 2 l -3,-16 v -2 l 5,1 19,10 14,5 9,2 4,-1 -6,-10 v -5 l 12,2 16,3 9,1 h 18 l -6,-7 -5,-6 v -3 l 25,-1 19,-3 9,-2 -1,-3 -10,-7 v -4 l 10,-3 18,-4 19,-7 1,-2 -13,-8 -2,-4 15,-6 14,-9 v -2 l -14,-8 -26,-17 -29,-19 -44,-29 -19,-13 -15,-10 -9,-7 -2,-3 v -7 l 5,-7 15,-10 19,-12 15,-10 15,-10 17,-11 33,-22 16,-10 11,-8 14,-10 7,-5 v -2 l -15,-10 -16,-8 1,-5 8,-4 -3,-3 -14,-6 -10,-3 h -3 l 1,-10 -4,1 h -8 l -4,-9 -5,-8 h -2 l -2,9 -2,4 -5,-2 -8,-10 -18,-18 h -2 v 15 l -1,2 -4,-1 -11,-8 -14,-10 z"
     fill="#000000"
     id="path196" />
  <path
     d="m 255,88 9,1 8,5 6,7 2,5 v 13 l -4,8 -7,7 -7,3 h -12 l -8,-3 -5,-4 -5,-9 -1,-10 3,-10 7,-8 8,-4 z"
     fill="#000000"
     id="path206" />
  <path
     d="m 116,106 h 5 l 2,3 -7,8 -10,8 -3,4 10,6 -6,7 -9,10 -12,18 -4,5 -3,-1 v -8 l 4,-10 8,-14 h -9 l -1,-5 3,-6 7,-9 14,-11 z"
     fill="#000000"
     id="path210" />
  <path
     d="m 136,193 h 4 l -1,5 -10,14 -4,11 -1,7 6,-4 7,-2 1,5 -2,11 v 19 l 1,2 6,-7 h 4 l -1,10 -2,16 -2,4 -4,-1 -6,-7 -5,-12 -3,-19 -7,4 -4,-1 -2,-4 2,-14 4,-12 7,-13 9,-10 z"
     fill="#000000"
     id="path218" />
  <path
     d="m 70,220 3,1 -2,12 -2,9 -1,9 8,-5 4,1 -1,12 v 17 l 1,7 v 9 l -3,1 -5,-8 -2,-7 v -13 l -6,4 -5,-1 -2,-6 1,-14 4,-15 6,-11 z"
     fill="#000000"
     id="path230" />
  <path
     d="m 109,319 3,1 10,20 7,10 v 2 h 2 v 2 h 2 v -7 l 3,-5 4,2 11,12 3,3 v 2 l 4,2 8,7 v 4 h -6 l -11,-6 -7,-5 -1,9 -1,1 h -5 l -11,-9 -9,-14 -5,-11 -3,-11 v -6 z"
     fill="#000000"
     id="path242" />
  <path
     d="m 200,322 5,1 12,12 14,10 2,1 -2,-5 v -11 l 4,-1 15,10 16,7 6,3 -1,4 h -12 l -15,-5 4,10 v 4 l -4,1 -16,-7 -10,-6 -12,-10 -7,-11 z"
     fill="#000000"
     id="path246" />
</svg>
