<?xml version="1.0" encoding="UTF-8"?>
<svg id="Ebene_1" xmlns="http://www.w3.org/2000/svg" version="1.1" viewBox="0 0 453.543 68.031">
  <!-- Generator: Adobe Illustrator 29.2.1, SVG Export Plug-In . SVG Version: 2.1.0 Build 116)  -->
  <defs>
    <style>
      .st0 {
        fill: #549e8f;
      }

      .st0, .st1, .st2 {
        fill-rule: evenodd;
      }

      .st2 {
        fill: #e30613;
      }
    </style>
  </defs>
  <polygon class="st2" points="229.017 5.669 285.71 5.669 285.71 62.362 229.017 62.362 229.017 5.669 229.017 5.669"/>
  <path class="st1" d="M49.419,5.506l8.422,30.801c.543,1.973,1.046,4.079,1.51,6.329.464,2.251.9,4.768,1.311,7.561.053-2.357.238-4.674.53-6.965.291-2.291.742-4.595,1.337-6.926l7.376-30.801h11.984l-14.858,56.795h-11.679l-10.17-36.23c-.49-1.655-.874-3.323-1.165-5.005-.278-1.681-.477-3.43-.569-5.244-.133,1.92-.332,3.734-.61,5.429-.265,1.708-.622,3.311-1.059,4.82l-10.249,36.23h-11.679L4.992,5.506h12.142l7.482,31.543c.424,1.814.755,3.76,1.02,5.879.252,2.105.45,4.396.582,6.886.49-3.284,1.391-7.455,2.715-12.5l.185-.808,8.343-31h11.958Z"/>
  <polygon class="st1" points="109.072 62.3 109.072 5.506 142.508 5.506 142.508 15.742 121.215 15.742 121.215 27.435 142.508 27.435 142.508 37.75 121.215 37.75 121.215 62.3 109.072 62.3 109.072 62.3"/>
  <polygon class="st1" points="90.455 62.3 90.455 5.506 95.619 5.506 95.619 62.3 90.455 62.3 90.455 62.3"/>
  <path class="st1" d="M180.286,59.189c3.363,0,6.541-.622,9.548-1.867,3.005-1.232,5.707-3.046,8.117-5.429,2.357-2.397,4.158-5.138,5.416-8.197,1.258-3.071,1.88-6.29,1.88-9.68,0-3.416-.622-6.634-1.867-9.68-1.245-3.033-3.046-5.773-5.429-8.197-2.357-2.383-5.046-4.198-8.064-5.429-3.006-1.244-6.211-1.867-9.6-1.867s-6.541.623-9.521,1.867c-2.979,1.232-5.668,3.046-8.077,5.429-2.383,2.45-4.184,5.191-5.429,8.197-1.245,3.019-1.867,6.237-1.867,9.68,0,3.416.622,6.635,1.867,9.68,1.245,3.033,3.046,5.774,5.429,8.197,2.383,2.41,5.045,4.224,7.998,5.456,2.953,1.232,6.158,1.841,9.6,1.841h-.001ZM210.716,34.016c0,4.013-.768,7.813-2.291,11.428-1.523,3.602-3.721,6.819-6.594,9.64-2.926,2.847-6.224,5.005-9.905,6.502-3.668,1.483-7.561,2.225-11.64,2.225s-7.972-.742-11.627-2.225c-3.668-1.496-6.952-3.655-9.852-6.502-2.9-2.873-5.098-6.104-6.607-9.68-1.523-3.589-2.278-7.375-2.278-11.388,0-4.066.755-7.892,2.278-11.507,1.509-3.602,3.707-6.847,6.607-9.72,2.847-2.807,6.105-4.952,9.746-6.395,3.655-1.444,7.561-2.172,11.732-2.172s8.117.728,11.772,2.199c3.668,1.456,6.926,3.589,9.773,6.369,2.9,2.873,5.098,6.118,6.621,9.72,1.51,3.615,2.265,7.441,2.265,11.507h0Z"/>
  <path class="st0" d="M350.09,59.189c3.363,0,6.541-.622,9.548-1.867,3.005-1.232,5.707-3.046,8.117-5.429,2.357-2.397,4.158-5.138,5.416-8.197,1.258-3.071,1.88-6.29,1.88-9.68,0-3.416-.622-6.634-1.867-9.68-1.245-3.033-3.046-5.773-5.429-8.197-2.357-2.383-5.046-4.198-8.064-5.429-3.006-1.244-6.211-1.867-9.6-1.867s-6.541.623-9.521,1.867c-2.979,1.232-5.668,3.046-8.077,5.429-2.383,2.45-4.184,5.191-5.429,8.197-1.245,3.019-1.867,6.237-1.867,9.68,0,3.416.622,6.635,1.867,9.68,1.245,3.033,3.046,5.774,5.429,8.197,2.383,2.41,5.045,4.224,7.998,5.456,2.953,1.232,6.158,1.841,9.6,1.841h-.001ZM380.519,34.016c0,4.013-.768,7.813-2.291,11.428-1.523,3.602-3.721,6.819-6.594,9.64-2.926,2.847-6.224,5.005-9.905,6.502-3.668,1.483-7.561,2.225-11.64,2.225s-7.972-.742-11.627-2.225c-3.668-1.496-6.952-3.655-9.852-6.502-2.9-2.873-5.098-6.104-6.607-9.68-1.523-3.589-2.278-7.375-2.278-11.388,0-4.066.755-7.892,2.278-11.507,1.509-3.602,3.707-6.847,6.607-9.72,2.847-2.807,6.105-4.952,9.746-6.395,3.655-1.444,7.561-2.172,11.732-2.172s8.117.728,11.772,2.199c3.668,1.456,6.926,3.589,9.773,6.369,2.9,2.873,5.098,6.118,6.621,9.72,1.51,3.615,2.265,7.441,2.265,11.507h0Z"/>
  <polygon class="st0" points="305.553 62.3 305.553 5.506 310.717 5.506 310.717 62.3 305.553 62.3 305.553 62.3"/>
  <path class="st0" d="M418.121,59.189c3.363,0,6.541-.622,9.548-1.867,3.005-1.232,5.707-3.046,8.117-5.429,2.357-2.397,4.158-5.138,5.416-8.197,1.258-3.071,1.88-6.29,1.88-9.68,0-3.416-.622-6.634-1.867-9.68-1.245-3.033-3.046-5.773-5.429-8.197-2.357-2.383-5.046-4.198-8.064-5.429-3.006-1.244-6.211-1.867-9.6-1.867s-6.541.623-9.521,1.867c-2.979,1.232-5.668,3.046-8.077,5.429-2.383,2.45-4.184,5.191-5.429,8.197-1.245,3.019-1.867,6.237-1.867,9.68,0,3.416.622,6.635,1.867,9.68,1.245,3.033,3.046,5.774,5.429,8.197,2.383,2.41,5.045,4.224,7.998,5.456,2.953,1.232,6.158,1.841,9.6,1.841h-.001ZM448.551,34.016c0,4.013-.768,7.813-2.291,11.428-1.523,3.602-3.721,6.819-6.594,9.64-2.926,2.847-6.224,5.005-9.905,6.502-3.668,1.483-7.561,2.225-11.64,2.225s-7.972-.742-11.627-2.225c-3.668-1.496-6.952-3.655-9.852-6.502-2.9-2.873-5.098-6.104-6.607-9.68-1.523-3.589-2.278-7.375-2.278-11.388,0-4.066.755-7.892,2.278-11.507,1.509-3.602,3.707-6.847,6.607-9.72,2.847-2.807,6.105-4.952,9.746-6.395,3.655-1.444,7.561-2.172,11.732-2.172s8.117.728,11.772,2.199c3.668,1.456,6.926,3.589,9.773,6.369,2.9,2.873,5.098,6.118,6.621,9.72,1.51,3.615,2.265,7.441,2.265,11.507h0Z"/>
</svg>