<?xml version="1.0" encoding="UTF-8"?>
<svg id="Ebene_1" data-name="Ebene 1" xmlns="http://www.w3.org/2000/svg" width="109.4038mm" height="23.4616mm" viewBox="0 0 310.1211 66.5053">
  <defs>
    <style>
      .cls-1 {
        fill: #e20613;
      }

      .cls-1, .cls-2 {
        fill-rule: evenodd;
      }
    </style>
  </defs>
  <polygon class="cls-1" points="245.9128 2.208 307.9915 2.208 307.9915 64.2867 245.9128 64.2867 245.9128 2.208 245.9128 2.208"/>
  <path class="cls-2" d="M49.2533,2.0295l9.2215,33.727c.5945,2.16,1.1455,4.4662,1.6531,6.9306,.5078,2.4652,.9856,5.2205,1.4355,8.2793,.0579-2.5809,.2611-5.1185,.5799-7.6263,.319-2.5086,.8121-5.0317,1.4644-7.5837L71.6847,2.0295h13.1222l-16.2694,62.19h-12.7889l-11.1357-39.672c-.5366-1.8121-.9566-3.6387-1.2755-5.4807-.3045-1.8411-.5222-3.7553-.6234-5.7418-.1454,2.1022-.363,4.0887-.6675,5.9451-.29,1.87-.6812,3.6252-1.16,5.2774l-11.2224,39.672h-12.7888L.6065,2.0295H13.9023l8.1925,34.5391c.4643,1.9865,.8265,4.1175,1.1166,6.4373,.2755,2.3054,.4932,4.814,.6378,7.5403,.5366-3.5962,1.5231-8.1636,2.9729-13.6877l.2024-.8844L36.16,2.0295h13.0933Z"/>
  <polygon class="cls-2" points="114.5736 64.2195 114.5736 2.0295 151.1858 2.0295 151.1858 13.2384 127.8701 13.2384 127.8701 26.0417 151.1858 26.0417 151.1858 37.3365 127.8701 37.3365 127.8701 64.2195 114.5736 64.2195 114.5736 64.2195"/>
  <polygon class="cls-2" points="94.1874 64.2195 94.1874 2.0295 99.8424 2.0295 99.8424 64.2195 94.1874 64.2195 94.1874 64.2195"/>
  <path class="cls-2" d="M192.5543,60.8121c3.683,0,7.1627-.6812,10.4546-2.0443,3.291-1.3488,6.2494-3.3353,8.8882-5.945,2.5809-2.6243,4.5529-5.6261,5.9305-8.9758,1.3776-3.3632,2.0588-6.8872,2.0588-10.5992,0-3.7408-.6812-7.2639-2.0443-10.5991-1.3631-3.3208-3.3352-6.3218-5.945-8.9757-2.5809-2.6098-5.525-4.5963-8.8304-5.9451-3.2919-1.3623-6.8005-2.0443-10.5124-2.0443-3.6975,0-7.1628,.682-10.4257,2.0443-3.262,1.3488-6.2061,3.3353-8.8448,5.9451-2.6098,2.6829-4.5818,5.6839-5.945,8.9757-1.3631,3.3054-2.0443,6.8294-2.0443,10.5991,0,3.7408,.6812,7.2648,2.0443,10.5992,1.3632,3.3207,3.3352,6.3226,5.945,8.9758,2.6098,2.6387,5.5241,4.6252,8.7581,5.9739,3.2331,1.3487,6.7427,2.0154,10.5124,2.0154h0Zm33.3205-27.5642c0,4.3939-.841,8.5549-2.5087,12.5133-1.6676,3.944-4.0741,7.4672-7.2206,10.5558-3.2042,3.1176-6.8149,5.4808-10.8457,7.1194-4.0164,1.6242-8.2793,2.4364-12.7455,2.4364-4.4807,0-8.7291-.8121-12.731-2.4364-4.0163-1.6387-7.6126-4.0019-10.7879-7.1194-3.1753-3.1464-5.5827-6.6839-7.235-10.5991-1.6676-3.9296-2.4942-8.076-2.4942-12.47,0-4.4518,.8266-8.6416,2.4942-12.6001,1.6523-3.944,4.0597-7.497,7.235-10.6433,3.1176-3.0733,6.6849-5.4229,10.6723-7.003,4.0019-1.5808,8.2793-2.3784,12.8467-2.3784,4.5818,0,8.8882,.7976,12.89,2.4074,4.0164,1.5945,7.5837,3.9296,10.7012,6.974,3.1753,3.1463,5.5819,6.6993,7.2495,10.6433,1.6531,3.9585,2.4798,8.1483,2.4798,12.6001h0Z"/>
</svg>